<mxfile host="app.diagrams.net" modified="2021-05-21T08:54:35.714Z" agent="5.0 (Macintosh; Intel Mac OS X 10_15_7) AppleWebKit/537.36 (KHTML, like Gecko) Chrome/86.0.4240.193 Safari/537.36" etag="_NGoHUYzuQROklDWEZng" version="14.6.13" type="github">
  <diagram id="47fIOy14wM3hesXjgYel" name="Page-1">
    <mxGraphModel dx="1773" dy="536" grid="1" gridSize="10" guides="1" tooltips="1" connect="1" arrows="1" fold="1" page="1" pageScale="1" pageWidth="827" pageHeight="1169" math="0" shadow="0">
      <root>
        <mxCell id="0" />
        <mxCell id="1" parent="0" />
        <mxCell id="Jlr51O6KfWwHtw5gFQtN-6" style="edgeStyle=none;rounded=0;orthogonalLoop=1;jettySize=auto;html=1;exitX=0.5;exitY=1;exitDx=0;exitDy=0;entryX=0.5;entryY=0;entryDx=0;entryDy=0;" parent="1" source="Jlr51O6KfWwHtw5gFQtN-1" target="Jlr51O6KfWwHtw5gFQtN-3" edge="1">
          <mxGeometry relative="1" as="geometry" />
        </mxCell>
        <mxCell id="Jlr51O6KfWwHtw5gFQtN-1" value="NameServer" style="rounded=1;whiteSpace=wrap;html=1;fillColor=#d5e8d4;strokeColor=#82b366;" parent="1" vertex="1">
          <mxGeometry x="180" y="130" width="120" height="60" as="geometry" />
        </mxCell>
        <mxCell id="Jlr51O6KfWwHtw5gFQtN-5" style="rounded=0;orthogonalLoop=1;jettySize=auto;html=1;exitX=0.5;exitY=0;exitDx=0;exitDy=0;entryX=0.5;entryY=1;entryDx=0;entryDy=0;" parent="1" source="Jlr51O6KfWwHtw5gFQtN-2" target="Jlr51O6KfWwHtw5gFQtN-1" edge="1">
          <mxGeometry relative="1" as="geometry" />
        </mxCell>
        <mxCell id="Jlr51O6KfWwHtw5gFQtN-2" value="Broker" style="rounded=1;whiteSpace=wrap;html=1;fillColor=#fff2cc;strokeColor=#d6b656;" parent="1" vertex="1">
          <mxGeometry x="30" y="320" width="120" height="60" as="geometry" />
        </mxCell>
        <mxCell id="Jlr51O6KfWwHtw5gFQtN-3" value="Producer" style="rounded=1;whiteSpace=wrap;html=1;fillColor=#dae8fc;strokeColor=#6c8ebf;" parent="1" vertex="1">
          <mxGeometry x="310" y="320" width="120" height="60" as="geometry" />
        </mxCell>
        <mxCell id="Jlr51O6KfWwHtw5gFQtN-8" value="每隔30s向nameserver注册自己的地址信息&lt;br&gt;即起到注册信息的作用，又起到心跳的作用" style="shape=note;strokeWidth=2;fontSize=14;size=20;whiteSpace=wrap;html=1;fillColor=#fff2cc;strokeColor=#d6b656;fontColor=#666600;" parent="1" vertex="1">
          <mxGeometry x="-70" y="410" width="310" height="70" as="geometry" />
        </mxCell>
        <mxCell id="Jlr51O6KfWwHtw5gFQtN-9" value="根据Topic查询路由信息" style="shape=note;strokeWidth=2;fontSize=14;size=20;whiteSpace=wrap;html=1;fillColor=#fff2cc;strokeColor=#d6b656;fontColor=#666600;" parent="1" vertex="1">
          <mxGeometry x="270" y="410" width="270" height="70" as="geometry" />
        </mxCell>
        <mxCell id="Jlr51O6KfWwHtw5gFQtN-10" value="1. nameserver收到broker心跳包后更新brokerLiveTable，记录心跳时间&lt;br&gt;lastUpdatetime&lt;br&gt;2. nameserver每隔10s扫描brokerLiveTable，将当前时间和上次心跳时间lastUpdatetime进行比较，如果超过120s，则认为broker不可用，移除路由表中与该broker相关的所有信息" style="shape=note;strokeWidth=2;fontSize=14;size=20;whiteSpace=wrap;html=1;fillColor=#fff2cc;strokeColor=#d6b656;fontColor=#666600;" parent="1" vertex="1">
          <mxGeometry x="370" y="100" width="450" height="110" as="geometry" />
        </mxCell>
      </root>
    </mxGraphModel>
  </diagram>
</mxfile>
